<svg xmlns="http://www.w3.org/2000/svg" xmlns:xlink="http://www.w3.org/1999/xlink" version="1.1" id="girl" x="0" y="0" viewBox="0 0 1210.8 1080" xml:space="preserve" enable-background="new 0 0 1210.8 1080">
  <style type="text/css">
    
	.st0{fill:#297954;}
	.st1{fill:#EB9F9F;}
	.st2{fill:#3C3D2F;}
	.st3{fill:#FFFFFF;}
	.st4{fill:#F1BBBA;}
	.st5{fill:#FBCE7B;}
	.st6{fill:#326C5E;}
	.st7{fill:none;stroke:#3C3D2F;stroke-width:5;stroke-linecap:round;stroke-miterlimit:10;}
	.st8{fill:none;stroke:#332E35;stroke-width:5;stroke-linecap:round;stroke-miterlimit:10;}
	.st9{fill:#F18F90;}
	.st10{fill:none;stroke:#FFD26E;stroke-width:5;stroke-miterlimit:10;}
	.st11{fill:none;stroke:#297954;stroke-width:5;stroke-linecap:round;stroke-miterlimit:10;}

  </style>
  <path class="st0" d="M946.1 457.8"/>
  <path class="st0" d="M839.9 539.1"/>
  <path class="st0" d="M817.5 670l-1.8-38.4 -3.7-69.4V458.1c0 0-5.5-98.6-5.5-118.7 0-20.1 9.1-74.9-5.5-111.4 5.5 29.2-1.8 93.1-5.5 107.8 -3.7 14.6 5.5 104.1 3.7 116.9 -1.8 12.8 0 96.8 0 105.9s3.7 109.6 3.7 109.6L817.5 670z"/>
  <g id="vase">
    <rect x="772" y="669" class="st1" width="72" height="20.3"/>
    <rect x="772" y="698.6" class="st1" width="72" height="20.3"/>
    <rect x="772" y="728.2" class="st1" width="72" height="20.3"/>
    <rect x="772" y="757.7" class="st1" width="72" height="20.3"/>
  </g>
  <g id="leave-6">
    <path class="st0" d="M807.8 322.7c13.4-12.2 12.3-25.7 14.5-28 2.3-2.3 3.4-20.3 33.8-32.7 30.4-12.4 56.3-10.1 56.3-10.1s-43.9 58.6-87.9 63.1c-7.9 5.6-18 13.5-18 13.5L807.8 322.7z"/>
    <circle class="st1" cx="919" cy="248" r="7"/>
  </g>
  <g id="leave-5_1_">
    <circle class="st1" cx="694" cy="308" r="7"/>
    <path id="leave-5" class="st0" d="M805.3 381.1c-13.4-12.2-12.3-25.7-14.5-28 -2.3-2.3-3.4-20.3-33.8-32.7 -30.4-12.4-56.3-10.1-56.3-10.1s43.9 58.6 87.9 63.1c7.9 5.6 18 13.5 18 13.5L805.3 381.1z"/>
  </g>
  <g id="leave-4">
    <path class="st0" d="M809.9 456.1c17.3-15.8 15.9-33.3 18.8-36.2 2.9-2.9 4.4-26.2 43.7-42.3s72.9-13.1 72.9-13.1 -56.8 75.8-113.7 81.6c-10.2 7.3-23.3 17.5-23.3 17.5L809.9 456.1z"/>
    <circle class="st1" cx="952" cy="362" r="7"/>
  </g>
  <g id="leave-3">
    <path class="st0" d="M803.1 514.6c-17.3-15.8-15.9-33.3-18.8-36.2 -2.9-2.9-4.4-26.2-43.7-42.3S667.7 423 667.7 423s56.8 75.8 113.7 81.6c10.2 7.3 23.3 17.5 23.3 17.5L803.1 514.6z"/>
    <circle class="st1" cx="662" cy="421" r="7"/>
  </g>
  <g id="leave-2">
    <path class="st0" d="M814 593c21.7-19.8 19.9-41.7 23.6-45.4s5.5-32.9 54.8-53c49.3-20.1 91.3-16.4 91.3-16.4s-71.2 95-142.5 102.3c-12.8 9.1-29.2 21.9-29.2 21.9L814 593z"/>
    <circle class="st1" cx="987" cy="477" r="7"/>
  </g>
  <g id="leave-1">
    <path class="st0" d="M806.4 635c-21.7-19.8-19.9-41.7-23.6-45.4 -3.7-3.7-5.5-32.9-54.8-53 -49.3-20.1-91.3-16.4-91.3-16.4s71.2 95 142.5 102.3c12.8 9.1 29.2 21.9 29.2 21.9L806.4 635z"/>
    <circle class="st1" cx="632" cy="518" r="7"/>
  </g>
  <g id="circle">
    <ellipse class="st2" cx="813" cy="848.5" rx="223" ry="37.5"/>
    <circle class="st3" cx="722.5" cy="827.5" r="1.5"/>
    <circle class="st3" cx="676.5" cy="853.5" r="1.5"/>
    <circle class="st3" cx="759.5" cy="866.5" r="1.5"/>
    <circle class="st3" cx="800.5" cy="825.5" r="1.5"/>
    <circle class="st3" cx="848.5" cy="859.5" r="1.5"/>
    <circle class="st3" cx="950.5" cy="851.5" r="1.5"/>
    <circle class="st3" cx="890.5" cy="828.5" r="1.5"/>
  </g>
  <g id="body">
    <path class="st4" d="M272.7 435c-14.2-5-24.6-11.8-26.4-16.4 -1.8-4.6-4.1-12.5-10.9-11.5 -6.8 0.9-16.2-1.4-11.5 5.8 4.7 7.2 8.7 20.4 23.7 34.2 15 13.7 73 14 86 8s36-15 39-26 -6-17-19-10 -16.3 16.8-33.2 16.9C303.6 436 286.9 440 272.7 435z"/>
    <path class="st5" d="M398.8 528.2c-2.6-7.7 1-60.5-10.9-65.3 -1.8-0.7-3.7-1.6-5.7-2.7 6.7-2.5 11.2-6.7 9.7-11.1 -2.6-7.7-8.2-25.6-20.1-30.4 -11.9-4.8-25.5-22.2-33.9-17.7s-9 21-17 27c-3.6 2.7-18 8.3-32.8 3.2s-26.9-6.4-30.7-10.2c-3.8-3.8-9.6-9-9.6-9 -5.1-1.9-12.3-0.3-17.7 3.4 -5.4 3.7-18.2 14.5-20.7 24.8 -1.5 5.9-0.8 16.7 3.5 24.9 -4.2 4.5-8 9.7-9.3 14.8 -2.6 10.2-5.9 101.5 12.6 102.1 18.6 0.6 32-9.6 46.7 6.4 14.7 16 72.4 3.2 77.5 0 5.1-3.2 19.2-5.1 32.7-3.8C386.7 585.8 401.4 535.8 398.8 528.2z"/>
    <path class="st6" d="M210.3 451.5c7.7 5.5 12.4 26 19 26 4.3 0 0.6-11.9-2-19 -4-5-4.7-13.2-8.3-19.5C212.6 439.4 205 447.8 210.3 451.5z"/>
    <path class="st6" d="M288.6 479c0 6.6-16.7 17.5-23.3 17.5s6-14.4 6-21c0-6.6-12.6-16-6-16S288.6 472.4 288.6 479z"/>
    <path class="st6" d="M367.3 451.5c5.5 3.7 6.6 23 0 23s-10-17-27.2-15c-6.6 0.8-5.4-15 1.2-15S355.3 443.5 367.3 451.5z"/>
    <path class="st6" d="M284 575.2c1.4-4 8.8-9.3 9.9-5.2 1.1 4.1-0.2 10.5 3.8 20.8 1.5 4-8.4 5.8-9.5 1.7S281 583.9 284 575.2z"/>
    <path class="st6" d="M395.3 534.5c5.5 3.7 6.6 23 0 23S396.2 568 379 570c-6.6 0.8-3-16-1-26C379.3 537.5 383.3 526.5 395.3 534.5z"/>
    <path class="st6" d="M354.6 407.4c-1.3 1.9-2 4.2-2 6.7 0 6.6 5.4 12 12 12 5.7 0 23.5 8.9 24.7 3.5C382.6 425.3 361.9 409.8 354.6 407.4z"/>
    <path class="st6" d="M359.3 495.5c0 6.6 14.6 20 8 20s-20.7-3.9-20.7-10.5c0-6.6 1.1-22.5 7.7-22.5S359.3 488.9 359.3 495.5z"/>
    <path class="st6" d="M323.3 523.5c0 6.6 14.6 20 8 20s-20.7-3.9-20.7-10.5c0-6.6 1.1-22.5 7.7-22.5S323.3 516.9 323.3 523.5z"/>
    <path class="st6" d="M217.3 495.5c0 6.6 5.4 17-1.2 17 -6.6 0-12-5.4-12-12 0-6.6-8.4-22-1.8-22C208.9 478.5 217.3 488.9 217.3 495.5z"/>
    <path class="st6" d="M226.3 555.5c0 6.6 5.4 17-1.2 17 -6.6 0-19.1-1.9-19.1-8.5s8-3 5.3-25.5C210.5 532 226.3 548.9 226.3 555.5z"/>
    <path class="st6" d="M260.3 564.5c0 6.6-8.6 4.5-15.3 4.5s1 21-17 19c-6.6-0.7 10.6-40.5 17.3-40.5C251.9 547.5 260.3 557.9 260.3 564.5z"/>
    <path class="st6" d="M358.6 538.9c0 4.2 3.5 10.9-0.8 10.9 -4.2 0-7.7-3.4-7.7-7.7S344.7 528 349 528C353.2 528 358.6 534.7 358.6 538.9z"/>
    <path class="st7" d="M270.5 387.5l-1.4 10.8c-0.3 2.5-2.2 4.4-4.7 4.8 -11.5 1.9-27.8 8.2-33.9 12.3"/>
    <path class="st7" d="M316.5 385.5l2.8 10.4c0.7 2.8 3 4.8 5.9 5.1 11 1.2 38 4.6 43.8 8.6"/>
    <path class="st8" d="M375.3 412.5c5.2 3 10.2 18 14.2 38"/>
    <path class="st7" d="M257.5 404.5c-1 11 11.1 26.9 39 26 30-1 35-11 37-28"/>
    <path class="st7" d="M234.5 408.5c8 21.7 11.1 37 48 42 15.5 2.1 34.7-2.3 48-5 0 0 24-10 31-37"/>
    <path class="st7" d="M230.7 416.9c-15.4 12.8-17.9 21.8-17.9 21.8s-13.5 32.3-11.6 63 -4.5 54.4 1.9 71.1"/>
    <line class="st7" x1="323.2" y1="426" x2="329.9" y2="442.1"/>
    <line class="st7" x1="259.4" y1="416.9" x2="245.5" y2="428.5"/>
    <line class="st7" x1="273.9" y1="427.7" x2="268.5" y2="444.5"/>
    <line class="st7" x1="297.9" y1="430.4" x2="299.2" y2="447.8"/>
    <path class="st7" d="M232.5 453.5c-11 23-10.5 54.6-6 61 4.5 6.4 3 9-2 34 -3.7 18.3-1.4 28.3-2 43s63.9 8.2 88.9 8.9c25 0.6 57.5 1.7 58.1-9.9s0.4-39-4-53c-5-16 2-18 5-38 2-13.4-8.2-39.9-12-45"/>
    <path class="st7" d="M393.6 571.9c-0.2 2.7-0.7 5.2-1.6 7.4 -4.5 10.9-11.5 19.9-11.5 19.9l-14.7 0.6"/>
    <path class="st7" d="M389.1 463.4c0.4 17.2 8.1 63.3 4.9 74.2 -1.8 6.2-0.7 15.4-0.3 24.2"/>
    <path class="st7" d="M206.3 583.1c0 0 1.9 14.1 4.5 15.4 2.6 1.3 18.6-0.6 18.6-0.6"/>
    <path class="st7" d="M211.8 579.6c0 0 3 17.5 6.3 18.3"/>
    <line class="st7" x1="221.3" y1="585.2" x2="224.5" y2="597.2"/>
    <path class="st7" d="M371.2 582.1c0 0 1.2 13-1.7 16.4"/>
    <path class="st7" d="M381.5 577.6c-0.6 4.5-5.7 21.6-5.7 21.6"/>
    <path class="st2" d="M368.5 594.5c0 0 7.5 62.5 25.5 135.5 -106.7 27.3-192 2-192 2s3.8-17 11-55c8-42 11.5-79.5 11.5-79.5s42.5 5.7 64.7 4.3c22.3-1.3 56.7 1 64.5-2.2S368.5 594.5 368.5 594.5z"/>
    <circle class="st3" cx="225.5" cy="707.5" r="1.5"/>
    <circle class="st3" cx="309.5" cy="716.5" r="1.5"/>
    <circle class="st3" cx="370.5" cy="698.5" r="1.5"/>
    <circle class="st3" cx="272.5" cy="674.5" r="1.5"/>
    <circle class="st3" cx="332.5" cy="650.5" r="1.5"/>
    <circle class="st3" cx="297.5" cy="611.5" r="1.5"/>
    <circle class="st3" cx="356.5" cy="610.5" r="1.5"/>
    <circle class="st3" cx="242.5" cy="621.5" r="1.5"/>
    <path class="st7" d="M212.5 600.5l1 21c0 0-9 12-8 20s1 13 1 20 9.7 11.2 9.7 11.2"/>
    <path class="st7" d="M380.5 599.5l-2 21c0 0 12 22 10 33s-7 16-7 16"/>
    <path class="st7" d="M241.5 736.5c5 20 6 29 6 38 0 4.1-2 17-1 38 0.7 14.1 10.9 63.2 13 73 1 4.8-2 8-2 8s-6 7-7 20 39 7 49 4 -11-24-11-24 -2.3-5.1-3-10c-3-20 0-110 0-110s1.4-8 2-16c1-13 0-36 0-36"/>
    <path class="st2" d="M300 928c-5 2-42 4-47-1s-4-8-4-11c0-1.9 11 5 25 4 13.7-1 29-4 29-4S305 926 300 928z"/>
    <path class="st7" d="M356.5 718.5c-4 23-6 31-6 50 0 4.1 2.3 20.5 1 45 -1 19-8 59-8 70 0 4.9 5 11 5 11s5 10 6 17c1.8 12.9-37 10-47 7s1-20 1-20 5.2-6.1 6-11c7-42-2-111-2-111s-4.2-15-5-23c-2-19-3-28-3-28"/>
    <path class="st2" d="M308 928c4.8 2 39 3 44.5-1 3.8-2.8 5.5-10 4.5-13 -0.6-1.8-13.8 5.3-24.9 6 -13.3 0.9-28.1-4-28.1-4S303.2 926 308 928z"/>
    <path class="st1" d="M303.8 917c23.2-11 51.2-8 51.2-8l-2-6c0 0-39 0-49 9C304 913 304 915 303.8 917z"/>
    <path class="st1" d="M305 907c15-11 46-9 46-9l-3-6c0 0-32 0-41 9C305 902 304 906 305 907z"/>
    <path class="st1" d="M302 917c-23.2-11-51.2-8-51.2-8l2-6c0 0 39 0 49 9C301.8 913 301.8 915 302 917z"/>
    <path class="st1" d="M299.8 907c-15-11-46-9-46-9l3-6c0 0 32 0 41 9C299.8 902 300.8 906 299.8 907z"/>
  </g>
  <g id="head">
    <path class="st7" d="M290.3 321.5c-1 6-2 12 1 16"/>
    <path class="st2" d="M343.8 291c-1.4 18.1-12.4 17.9-16.8 14 -3.3-2.9-4.7-15.6-2.6-21.4 2.8-7.6 9.5-9.9 16.6-4.5C344.5 281.9 344.1 286.6 343.8 291z"/>
    <path class="st2" d="M258.8 291c0 10-4 16-11.9 16.3 -8-0.6-10-20.8-7.1-25.3 2.4-3.7 9-4.9 13-3C257.8 278 258.8 286.6 258.8 291z"/>
    <path class="st7" d="M317.3 285.5c3-4 5.8-8 16-8 12 0 20 7 22 13"/>
    <path class="st7" d="M226.3 291.5c1-4 6.7-13.2 21-14 6.6-0.3 12.4 2 16 8"/>
    <path class="st9" d="M272 353.9c4.2-2.5 11.8-2.5 17.7 0 5.9-3.4 18.6 0 18.6 0s-6.8 11-21.1 11C274.6 363.2 272 353.9 272 353.9z"/>
    <path class="st7" d="M270.8 352.6c11.8 10.1 29.6 5.1 38 0"/>
    <path class="st8" d="M270.3 259.5c-6-7-19.5-7-32-4"/>
    <path class="st8" d="M311.3 260.5c10-6 18.9-8.6 33-7 18 2 28 13 28 13"/>
    <ellipse class="st9" cx="337.8" cy="326.5" rx="12" ry="10.5"/>
    <ellipse class="st9" cx="238.8" cy="325.5" rx="12" ry="10.5"/>
    <path class="st1" d="M331.8 217c-2 10-24 29-34 34 -10 5 2-12 7-22 -30 37-94.2 53-94.2 53s10 39 6 57 -14 28-13 12 3-15-1-29 -34-46.3-12.8-84c20.5-36.5 12.3-61.2 44-77 40-20 96-25 104-7 19 5 30 2 47 37s11 42 9 78c-0.6 11.6-5 25.4-5 37 1 19-10.7 93.7-16 110 -13 40-19 41-32 57s-12.5 24.2-26 29c-14 5-9 13-4 24 -10-5-16.9-17.1-8-34 9-17 11-21 17-28 -3-6-7-1-16 7 0-11 35-40 36-70 0.2-3.9-7.7-1.2-9-7 -4-18 16-26 23-34 13.6-15.5 13-20 15-58 -2-18.9 1-25-12-39 -6.3-6.8-14-15-18-27S331.8 217 331.8 217z"/>
    <path class="st10" d="M212.5 278.3c-1.2 4.2-0.9 28 6.5 36.5 7.4 8.5 31.2 8.2 38.3 6.7 25.4-4.3 28.8-29.5 30-31 5.1-1.7 8-1 8-1s2.6 18.4 11 27c8.4 8.6 35.1 14.9 51 3 15.9-11.9 18-37 17-40 -2-3-4.6-11.1-15-13 -43-9-64 9-64 9h-9c0 0-12-15-43-12C224.9 265.3 216.3 270.5 212.5 278.3z"/>
    <path class="st11" d="M288.3 214.5c-7.5 15.5-26.5 24.1-48 36"/>
    <path class="st1" d="M214.8 338c-0.6 6.2-5.6 67.8 6 113 7.1 27.5 40 51 29 72 6.8 4.6 18-28 6-60 -5-10 6 0 11-2 -15-15-17-32-15-57 0.7-8.2 9.1-3.2 9-10 -0.2-15.1-11-12-18-18C235.2 369.5 214.8 338 214.8 338z"/>
    <path class="st11" d="M342.1 207.5c4 10 14.7 28.4 24 23 5.2-3 2.2-10-4-12 -6.7-2.2-7 22 6 25"/>
    <path class="st7" d="M218.3 337.5c3 16 15 28.7 30 39 37.5 23.9 113 13 120-52"/>
  </g>
</svg>
